<svg fill="none" height="1024" viewBox="0 0 1024 1024" width="1024" xmlns="http://www.w3.org/2000/svg"><path d="m0 357.903c0-125.278 0-187.917 24.3807-235.767 21.4458-42.0894 55.6659-76.3095 97.7553-97.7553 47.85-24.3807 110.489-24.3807 235.767-24.3807h308.194c125.278 0 187.917 0 235.767 24.3807 42.089 21.4458 76.309 55.6659 97.755 97.7553 24.381 47.85 24.381 110.489 24.381 235.767v308.194c0 125.278 0 187.917-24.381 235.767-21.446 42.089-55.666 76.309-97.755 97.755-47.85 24.381-110.489 24.381-235.767 24.381h-308.194c-125.278 0-187.917 0-235.767-24.381-42.0894-21.446-76.3095-55.666-97.7553-97.755-24.3807-47.85-24.3807-110.489-24.3807-235.767z" fill="#fffc00"/><path d="m835.56 676.22c-2.912-9.221-16.501-16.015-16.501-16.015-1.456-.485-2.426-1.456-3.397-1.941-21.354-10.192-41.251-23.295-59.208-38.825-13.103-11.647-24.75-24.751-34.457-39.31-8.25-12.133-14.559-25.236-18.927-39.31-1.456-2.912-1.456-6.309 0-9.706.971-1.941 2.912-3.883 4.853-5.339 7.765-5.338 19.898-13.103 27.178-17.956 6.309-4.368 12.132-7.765 15.53-10.191 9.221-5.824 16.5-13.589 21.839-22.81 5.338-10.191 6.309-22.324 1.941-33.486-6.309-15.53-21.354-25.236-38.34-24.266-4.367 0-8.25.486-12.132 1.456-9.707 2.427-19.413 5.339-28.634 9.221-.485 0-.97 0-.97-.485v-.486c1.456-24.75 1.456-49.501-.486-74.252-1.455-20.868-6.309-41.736-15.044-61.149-14.559-31.06-38.825-56.781-68.429-73.281-61.149-33.487-134.915-33.487-195.579 0-16.015 8.735-30.089 20.383-42.222 33.971-10.677 11.648-19.898 25.236-26.692 39.796-8.736 19.412-13.589 39.795-15.045 61.149-1.941 24.75-1.941 49.501-.485 74.252 0 .485-.485.97-.97.97h-.486c-9.221-3.882-18.927-6.794-28.633-9.22-3.882-.971-8.25-1.456-12.133-1.456-16.5-.971-32.03 8.735-38.339 24.265-4.368 10.677-3.397 23.295 1.941 33.486 5.339 9.221 13.103 17.471 22.324 22.81 3.397 2.426 9.221 5.824 15.53 10.191 7.28 4.853 19.413 12.618 26.692 17.957 1.941 1.456 3.883 3.397 5.339 5.823 1.456 3.398 1.456 6.795 0 10.192-4.368 13.589-10.677 26.692-18.927 38.825-9.707 14.559-21.354 27.662-34.457 39.31-17.957 15.53-37.854 28.633-59.208 38.824-.971.486-2.427.971-3.883 1.942 0 0-13.588 6.794-16.015 15.53-1.941 13.103 4.853 25.721 16.501 32.03 15.044 8.735 31.545 15.53 48.531 19.898 3.397.97 6.309 1.456 9.221 2.426 2.911.971 5.338 2.427 7.764 4.368 1.942 3.397 2.912 6.794 3.398 10.677.97 8.735 5.823 16.5 12.618 21.353 11.162 5.824 23.78 8.251 36.398 7.28 19.412 0 39.31 2.912 57.752 8.735 10.676 3.883 21.353 9.707 31.059 16.016 60.179 42.222 140.255 42.222 199.948 0 9.706-6.309 19.897-11.648 30.574-15.53 18.927-5.824 38.339-8.736 57.752-8.736 12.618.971 25.236-1.456 36.398-7.279 7.28-5.339 12.133-13.589 13.103-22.81 0-3.397 1.456-6.309 2.912-9.221 1.941-1.941 4.853-3.397 7.28-4.368 2.912-.97 5.824-1.941 9.221-2.426 15.53-3.397 30.574-9.221 44.648-16.986 21.839-13.103 23.295-28.148 21.354-35.913z" fill="#fff"/><path d="m855.459 669.907c-4.368-11.162-13.103-20.868-24.265-25.721-1.942-.971-3.883-1.941-5.339-2.912-2.912-1.456-6.309-2.912-9.706-4.853-30.089-15.044-55.81-37.369-75.708-64.546-4.853-7.28-9.221-15.045-13.103-22.81-1.456-2.911-1.456-6.309-.486-9.22.971-1.942 2.427-3.398 4.368-4.368 5.338-3.883 11.162-7.28 15.045-10.192 6.794-4.367 12.618-8.25 16.015-10.676 11.647-7.765 21.353-17.957 28.633-30.09 8.25-15.53 9.221-33.971 2.912-50.472-9.221-23.295-32.03-38.824-57.267-37.854-5.338 0-11.162.485-16.5 1.941l-4.368.971c.485-16.5 0-33.001-1.456-49.016-1.941-41.737-18.441-82.017-46.589-112.592-13.589-15.044-29.604-28.148-47.561-38.339-67.458-36.884-149.475-36.884-216.933 0-17.956 10.191-33.971 22.809-47.56 38.339-27.177 31.06-43.678 70.855-45.619 112.592-1.456 16.5-1.941 33.001-1.456 49.016l-4.368-.971c-5.338-1.456-11.162-1.941-16.5-1.941-25.236-.97-48.046 14.074-57.267 37.854-6.309 16.501-5.338 34.942 2.912 50.472 6.794 12.133 16.501 22.81 28.633 30.09 3.397 2.426 9.221 5.823 16.016 10.676 3.882 2.427 9.22 5.824 14.559 9.707 1.941 1.455 3.397 2.911 4.853 4.853 1.456 2.911.97 6.309-.485 9.22-3.398 7.765-7.765 15.53-12.618 22.325-19.898 27.177-45.134 48.531-74.253 63.575-16.5 9.221-33.971 14.559-41.251 34.457-5.338 16.501-.971 34.942 12.133 46.59 5.338 5.338 11.162 9.706 17.471 13.588 13.588 7.28 28.148 13.104 43.192 17.472 2.912.97 6.309 1.941 8.736 3.882 4.853 4.368 4.368 11.162 11.162 20.868 3.397 4.853 7.765 9.706 12.618 13.104 14.559 8.25 31.06 12.132 47.56 11.162 17.957 0 35.428 2.426 52.414 7.765 9.221 3.882 18.441 8.25 26.692 14.074 66.972 46.104 155.299 46.104 222.271 0 8.25-5.339 16.986-10.192 26.207-14.074 16.986-5.339 34.942-7.765 52.413-7.765 16.501.97 33.001-2.912 47.56-11.162 5.824-4.368 11.163-9.707 14.56-16.016 4.853-8.25 4.853-14.074 9.221-17.956 2.426-1.456 5.338-2.912 8.25-3.882 15.53-3.883 30.089-9.707 43.678-17.472 6.794-3.882 13.103-8.735 18.441-14.074 13.589-12.132 17.472-29.603 12.133-45.619zm-48.531 25.722c-29.604 16.5-49.016 14.559-64.546 24.265-13.103 8.25-5.338 26.207-14.559 33.001-11.648 7.765-46.104-.485-90.268 14.074-36.398 12.133-59.693 46.59-125.695 46.59s-88.326-34.457-125.695-46.59c-44.163-14.559-78.62-5.824-90.267-14.074-9.221-6.309-1.941-24.751-14.559-33.001-15.045-9.706-34.943-8.25-64.546-24.265-18.927-10.192-8.251-16.986-1.942-19.898 107.254-51.928 124.239-132.004 125.21-137.828 2.427-7.279 0-15.53-5.824-20.383-7.765-6.794-41.736-27.662-51.442-34.457-15.53-10.676-22.325-21.838-17.472-34.942 3.398-8.25 12.133-13.588 21.354-12.618 2.912 0 5.824.485 8.736.971 16.985 3.882 33.486 12.133 43.192 14.559.971.485 2.427.485 3.397.485 5.339 0 6.795-2.426 6.795-8.25-2.427-29.604-2.427-59.693-.971-89.297.971-33.486 14.559-66.002 37.369-90.752 69.399-69.885 182.476-70.37 252.36-.971l.971.971c22.81 24.75 35.913 56.781 37.369 90.752 1.941 29.604 1.456 59.693-.971 89.297-.485 6.309 1.456 8.25 6.795 8.25 1.455 0 2.426 0 3.397-.485 9.706-2.426 26.206-10.677 43.192-14.559 2.912-.486 5.824-.971 8.25-.971 9.221-.97 17.472 4.368 21.354 12.618 4.853 13.589-1.941 24.266-17.471 34.942-9.221 6.309-43.193 27.663-50.957 34.457-5.824 4.853-8.251 12.618-5.824 20.383.97 5.824 17.956 85.9 125.209 137.828 6.309 3.397 16.986 9.706-1.941 19.898z" fill="#000"/></svg>